<svg width="168" height="168" viewBox="0 0 168 168" fill="none" xmlns="http://www.w3.org/2000/svg">
<path d="M38.7843 75.5994C10.8238 51.2321 2.15112 33.1784 11.7843 30.168C23.2843 28.668 47.1176 37.5013 57.7843 45.168C79.7843 30.168 134.784 36.168 130.284 95.168C154.618 117.835 186.784 155.168 119.784 129.668C116.02 127.649 112.354 125.633 108.784 123.623M38.7843 75.5994C55.3112 90.0024 78.577 106.611 108.784 123.623M38.7843 75.5994C27.2843 93.168 57.7843 151.668 108.784 123.623M50.7843 51.168C-18.2157 33.168 154.784 160.168 126.284 102.668M39.7843 95.668C49.2843 104.835 72.6843 124.468 90.2843 129.668M51.7843 51.168C58.9509 68.5013 82.8843 104.968 121.284 112.168M60.2843 45.168C63.1176 60.3347 79.5843 94.168 122.784 108.168M71.7843 40.668C78.1176 50.0013 98.4843 71.068 129.284 80.668M77.2843 39.668C80.9509 47.5013 96.4843 65.868 129.284 76.668M88.2843 39.668C97.9509 49.0013 119.184 67.668 126.784 67.668M41.2843 64.668C64.7843 9.66799 167.784 46.668 116.784 117.668M39.2843 75.668C28.2843 93.668 57.2843 149.168 108.784 123.668" stroke="white" stroke-width="4"/>
</svg>
